<svg width="23" height="23" viewBox="0 0 23 23" fill="none" xmlns="http://www.w3.org/2000/svg">
<path d="M11.5 12.5062L6.46876 17.5375C6.32501 17.6812 6.1573 17.7531 5.96564 17.7531C5.77397 17.7531 5.60626 17.6812 5.46251 17.5375C5.31876 17.3937 5.24689 17.226 5.24689 17.0344C5.24689 16.8427 5.31876 16.675 5.46251 16.5312L10.4938 11.5L5.46251 6.46875C5.31876 6.325 5.24689 6.15729 5.24689 5.96563C5.24689 5.77396 5.31876 5.60625 5.46251 5.4625C5.60626 5.31875 5.77397 5.24688 5.96564 5.24688C6.1573 5.24688 6.32501 5.31875 6.46876 5.4625L11.5 10.4937L16.5313 5.4625C16.675 5.31875 16.8427 5.24688 17.0344 5.24688C17.2261 5.24688 17.3938 5.31875 17.5375 5.4625C17.6813 5.60625 17.7531 5.77396 17.7531 5.96563C17.7531 6.15729 17.6813 6.325 17.5375 6.46875L12.5063 11.5L17.5375 16.5312C17.6813 16.675 17.7531 16.8427 17.7531 17.0344C17.7531 17.226 17.6813 17.3937 17.5375 17.5375C17.3938 17.6812 17.2261 17.7531 17.0344 17.7531C16.8427 17.7531 16.675 17.6812 16.5313 17.5375L11.5 12.5062Z" fill="white"/>
</svg>
