<svg width="25" height="24" viewBox="0 0 25 24" fill="none" xmlns="http://www.w3.org/2000/svg">
<path d="M17.2 18.98H7.80002C7.38002 18.98 6.91002 18.65 6.77002 18.25L2.63002 6.67005C2.04002 5.01005 2.73002 4.50005 4.15002 5.52005L8.05002 8.31005C8.70002 8.76005 9.44002 8.53005 9.72002 7.80005L11.48 3.11005C12.04 1.61005 12.97 1.61005 13.53 3.11005L15.29 7.80005C15.57 8.53005 16.31 8.76005 16.95 8.31005L20.61 5.70005C22.17 4.58005 22.92 5.15005 22.28 6.96005L18.24 18.27C18.09 18.65 17.62 18.98 17.2 18.98Z" stroke="white" stroke-width="1.5" stroke-linecap="round" stroke-linejoin="round"/>
<path d="M7 22H18" stroke="white" stroke-width="1.5" stroke-linecap="round" stroke-linejoin="round"/>
<path d="M10 14H15" stroke="white" stroke-width="1.5" stroke-linecap="round" stroke-linejoin="round"/>
</svg>
