<svg width="24" height="24" viewBox="0 0 24 24" fill="none" xmlns="http://www.w3.org/2000/svg">
<path d="M5.40002 2.1H18.6C19.7 2.1 20.6 3 20.6 4.1V6.3C20.6 7.1 20.1 8.1 19.6 8.6L15.3 12.4C14.7 12.9 14.3 13.9 14.3 14.7V19C14.3 19.6 13.9 20.4 13.4 20.7L12 21.6C10.7 22.4 8.90002 21.5 8.90002 19.9V14.6C8.90002 13.9 8.50002 13 8.10002 12.5L4.30002 8.5C3.80002 8 3.40002 7.1 3.40002 6.5V4.2C3.40002 3 4.30002 2.1 5.40002 2.1Z" stroke="white" stroke-miterlimit="10" stroke-linecap="round" stroke-linejoin="round"/>
<path d="M10.93 2.1L6 10" stroke="white" stroke-miterlimit="10" stroke-linecap="round" stroke-linejoin="round"/>
</svg>
