<svg width="23" height="24" viewBox="0 0 23 24" fill="none" xmlns="http://www.w3.org/2000/svg">
<path d="M1.81079 22.8363H6.72955V23.9998H1.81079V22.8363Z" fill="white"/>
<path d="M15.8997 22.8364H20.8181V24H15.8997V22.8364Z" fill="white"/>
<path d="M10.7346 19.0831H11.8981V20.7167H10.7346V19.0831Z" fill="white"/>
<path d="M10.7346 9.88486H11.8981V11.4841H10.7346V9.88486Z" fill="white"/>
<path d="M11.9992 19.6651H10.6297C9.30781 19.6651 8.23282 18.6185 8.23282 17.3319H9.39638C9.39638 17.9769 9.94967 18.5015 10.6298 18.5015H11.9992C12.7643 18.5015 13.3866 17.9102 13.3866 17.1836C13.3866 16.8358 13.2449 16.5073 12.9874 16.2588C12.7244 16.0051 12.3734 15.8654 11.999 15.8654H10.6296C9.22314 15.8654 8.07867 14.7521 8.07867 13.384C8.07867 12.7172 8.3465 12.0916 8.83335 11.622C9.31415 11.158 9.95202 10.9023 10.6296 10.9023H11.9991C13.321 10.9023 14.3962 11.9489 14.3962 13.2354H13.2326C13.2326 12.5905 12.6793 12.0658 11.9991 12.0658H10.6296C10.2552 12.0658 9.90404 12.2055 9.64143 12.4591C9.384 12.7077 9.24229 13.0357 9.24229 13.384C9.24229 14.1106 9.86458 14.7019 10.6296 14.7019H11.9991C12.6766 14.7019 13.3145 14.9577 13.7955 15.4216C14.2821 15.8912 14.5502 16.5168 14.5502 17.1836C14.5502 18.5518 13.4057 19.6651 11.9993 19.6651H11.9992Z" fill="white"/>
<path d="M16.0513 23.9998H6.57736L6.44417 23.9244C5.56545 23.4276 4.76987 22.8007 4.07902 22.0615C3.87685 21.845 3.68071 21.6156 3.49642 21.3791C3.03016 20.7805 2.63312 20.1283 2.31621 19.4412C2.21294 19.218 2.11716 18.9876 2.03134 18.757C1.61994 17.6532 1.41113 16.4903 1.41113 15.3012C1.41113 13.9645 1.67293 12.6674 2.18948 11.4463C2.68836 10.2669 3.40229 9.20786 4.31155 8.29882C5.2208 7.38957 6.27962 6.67564 7.45898 6.17675C8.68009 5.66022 9.97727 5.39841 11.3139 5.39841C12.2753 5.39841 13.2267 5.53637 14.1413 5.80835C16.3373 6.46138 18.2539 7.87345 19.5381 9.78355C20.6363 11.4167 21.2166 13.3245 21.2166 15.3011C21.2166 16.4902 21.0078 17.6531 20.5962 18.7577C20.511 18.9875 20.415 19.2179 20.3113 19.4419C19.9948 20.129 19.5978 20.7812 19.1315 21.3792C18.9431 21.6213 18.7467 21.8513 18.5481 22.0628C17.8578 22.8015 17.0618 23.4279 16.184 23.9247L16.0513 23.9998ZM6.8864 22.8363H15.7427C16.4663 22.4103 17.1243 21.883 17.6998 21.2669C17.875 21.0805 18.0476 20.8779 18.2145 20.6639C18.6259 20.136 18.976 19.5608 19.2556 18.9541C19.3471 18.7569 19.431 18.5543 19.506 18.352C19.8694 17.3773 20.0535 16.3509 20.0535 15.3012C20.0535 13.5567 19.5415 11.8733 18.5729 10.433C17.4391 8.746 15.7475 7.49994 13.8102 6.92356C13.0032 6.68358 12.1635 6.56202 11.3143 6.56202C6.49554 6.56202 2.57502 10.4824 2.57502 15.3013C2.57502 16.3512 2.75911 17.3775 3.12209 18.3513C3.19752 18.5547 3.28188 18.7569 3.37247 18.9535C3.65193 19.5606 4.00246 20.1357 4.41406 20.6641C4.57695 20.8733 4.75003 21.0759 4.92872 21.2671C5.50468 21.8829 6.16271 22.4103 6.88643 22.8364L6.8864 22.8363Z" fill="white"/>
<path d="M18.7903 10.7575L18.5719 10.4325C17.4381 8.74596 15.7468 7.49947 13.8092 6.92309L13.4331 6.8111L13.3959 6.42047C13.382 6.27212 13.3748 6.1194 13.3748 5.96606C13.3748 3.31251 15.5338 1.15347 18.1873 1.15347C20.8409 1.15347 22.9995 3.31251 22.9995 5.96606C22.9995 7.07808 22.6112 8.16313 21.9058 9.02062C21.2104 9.86647 20.2403 10.4547 19.1737 10.6773L18.7903 10.7575ZM14.5381 5.93535C16.437 6.58966 18.1036 7.81763 19.2983 9.44284C20.7885 8.96599 21.8357 7.55933 21.8357 5.9661C21.8357 3.95398 20.1988 2.31707 18.1871 2.31707C16.1854 2.31728 14.5549 3.93754 14.5381 5.9353L14.5381 5.93535Z" fill="white"/>
<path d="M2.77777 4.97253C1.40687 4.97253 0.291504 3.85717 0.291504 2.48627C0.291504 1.11537 1.40687 0 2.77777 0C4.14867 0 5.26404 1.11537 5.26404 2.48627C5.26404 3.85738 4.14888 4.97253 2.77777 4.97253ZM2.77777 1.16377C2.04846 1.16377 1.45506 1.75717 1.45506 2.48648C1.45506 3.21578 2.04846 3.80919 2.77777 3.80919C3.50708 3.80919 4.10048 3.21578 4.10048 2.48648C4.10048 1.75717 3.50708 1.16377 2.77777 1.16377Z" fill="white"/>
</svg>
