<svg width="25" height="24" viewBox="0 0 25 24" fill="none" xmlns="http://www.w3.org/2000/svg">
<path d="M23.5 18C23.5 18.75 23.29 19.46 22.92 20.06C22.71 20.42 22.44 20.74 22.13 21C21.43 21.63 20.51 22 19.5 22C18.28 22 17.19 21.4501 16.47 20.5901C16.45 20.5601 16.42 20.5401 16.4 20.5101C16.28 20.3701 16.17 20.22 16.08 20.06C15.71 19.46 15.5 18.75 15.5 18C15.5 16.74 16.08 15.6101 17 14.8801C17.69 14.3301 18.56 14 19.5 14C20.5 14 21.4 14.36 22.1 14.97C22.22 15.06 22.33 15.1701 22.43 15.2801C23.09 16.0001 23.5 16.95 23.5 18Z" stroke="white" stroke-width="1.5" stroke-miterlimit="10" stroke-linecap="round" stroke-linejoin="round"/>
<path d="M20.99 17.98H18.01" stroke="white" stroke-width="1.5" stroke-miterlimit="10" stroke-linecap="round" stroke-linejoin="round"/>
<path d="M19.5 16.5201V19.5101" stroke="white" stroke-width="1.5" stroke-miterlimit="10" stroke-linecap="round" stroke-linejoin="round"/>
<path d="M3.66998 7.44005L12.5 12.55L21.27 7.47002" stroke="white" stroke-width="1.5" stroke-linecap="round" stroke-linejoin="round"/>
<path d="M12.5 21.61V12.54" stroke="white" stroke-width="1.5" stroke-linecap="round" stroke-linejoin="round"/>
<path d="M22.11 9.17005V14.8301C22.11 14.8801 22.11 14.92 22.1 14.97C21.4 14.36 20.5 14.0001 19.5 14.0001C18.56 14.0001 17.69 14.3301 17 14.8801C16.08 15.6101 15.5 16.7401 15.5 18.0001C15.5 18.7501 15.71 19.4601 16.08 20.0601C16.17 20.2201 16.28 20.3701 16.4 20.5101L14.57 21.5201C13.43 22.1601 11.57 22.1601 10.43 21.5201L5.09001 18.5601C3.88001 17.8901 2.89001 16.2101 2.89001 14.8301V9.17005C2.89001 7.79005 3.88001 6.11007 5.09001 5.44007L10.43 2.48005C11.57 1.84005 13.43 1.84005 14.57 2.48005L19.91 5.44007C21.12 6.11007 22.11 7.79005 22.11 9.17005Z" stroke="white" stroke-width="1.5" stroke-linecap="round" stroke-linejoin="round"/>
</svg>
