<svg width="22" height="24" viewBox="0 0 22 24" fill="none" xmlns="http://www.w3.org/2000/svg">
<path d="M8.80882 18.459C8.71284 17.6186 8.03278 16.8073 7.26716 15.8943C6.06907 14.4649 4.68032 12.8083 4.68032 10.2457C4.68032 8.48921 5.39312 6.89807 6.5445 5.74613C7.69797 4.59304 9.2891 3.88023 11.0456 3.88023C12.802 3.88023 14.3932 4.59304 15.5452 5.74441C16.6982 6.89788 17.4111 8.48902 17.4111 10.2455C17.4111 12.8079 16.0223 14.4647 14.8242 15.894C14.0592 16.8068 13.3789 17.6182 13.2827 18.4584C13.3873 18.5021 13.4812 18.5655 13.5595 18.6438C13.7139 18.7982 13.8106 19.0129 13.8106 19.2489C13.8106 19.4855 13.7139 19.7002 13.5595 19.8546C13.4051 20.009 13.1905 20.1057 12.9544 20.1057H9.13617C8.9018 20.1057 8.68807 20.0094 8.53275 19.8546C8.3765 19.6978 8.28015 19.4839 8.28015 19.2495C8.28015 19.0146 8.3765 18.8007 8.53126 18.6453C8.61162 18.5653 8.70518 18.5021 8.80878 18.4586L8.80882 18.459ZM7.8793 15.3822C8.73606 16.4039 9.49724 17.3126 9.60677 18.3931H12.4846C12.5941 17.3118 13.3555 16.4037 14.2118 15.3822C15.3227 14.0565 16.6108 12.5198 16.6108 10.246C16.6108 8.70863 15.9881 7.31688 14.9815 6.31003C13.9746 5.30332 12.5827 4.68075 11.0456 4.68075C9.5082 4.68075 8.11644 5.30351 7.10959 6.31003C6.10288 7.31693 5.48031 8.70882 5.48031 10.246C5.48031 12.52 6.76845 14.0568 7.8793 15.3822ZM9.01601 11.2981C8.85511 11.1482 8.84599 10.8952 8.99592 10.7343C9.14584 10.5734 9.39882 10.5643 9.55973 10.7142L11.0458 12.1013L12.5318 10.7142C12.6927 10.5643 12.9457 10.5734 13.0956 10.7343C13.2455 10.8952 13.2364 11.1482 13.0755 11.2981L11.4459 12.8193V15.7528C11.4459 15.9736 11.2667 16.1528 11.0459 16.1528C10.8251 16.1528 10.646 15.9736 10.646 15.7528V12.8193L9.01636 11.2981H9.01601ZM16.4279 16.1938C16.272 16.0379 16.272 15.784 16.4279 15.6281C16.5837 15.4722 16.8377 15.4722 16.9935 15.6281L18.2906 16.9252C18.4464 17.081 18.4464 17.3349 18.2906 17.4908C18.1347 17.6467 17.8808 17.6467 17.7249 17.4908L16.4279 16.1938ZM3.80032 3.56624C3.64445 3.41036 3.64445 3.15645 3.80032 3.00057C3.9562 2.8447 4.21011 2.8447 4.36599 3.00057L5.66303 4.29761C5.8189 4.45349 5.8189 4.7074 5.66303 4.86328C5.50715 5.01915 5.25324 5.01915 5.09736 4.86328L3.80032 3.56624ZM5.09736 15.6281C5.25324 15.4722 5.50715 15.4722 5.66303 15.6281C5.8189 15.7839 5.8189 16.0379 5.66303 16.1937L4.36599 17.4908C4.21011 17.6466 3.9562 17.6466 3.80032 17.4908C3.64445 17.3349 3.64445 17.081 3.80032 16.9251L5.09736 15.6281ZM17.7249 3.00053C17.8808 2.84465 18.1347 2.84465 18.2906 3.00053C18.4464 3.1564 18.4464 3.41031 18.2906 3.56619L16.9935 4.86323C16.8377 5.0191 16.5837 5.0191 16.4279 4.86323C16.272 4.70735 16.272 4.45345 16.4279 4.29757L17.7249 3.00053ZM10.6454 0.399921C10.6454 0.179127 10.8246 0 11.0453 0C11.2661 0 11.4453 0.179127 11.4453 0.399921V2.23362C11.4453 2.45442 11.2661 2.63355 11.0453 2.63355C10.8246 2.63355 10.6454 2.45442 10.6454 2.23362V0.399921ZM3.03357 9.84558C3.25436 9.84558 3.43349 10.0247 3.43349 10.2455C3.43349 10.4663 3.25436 10.6454 3.03357 10.6454H1.19948C0.978688 10.6454 0.799561 10.4663 0.799561 10.2455C0.799561 10.0247 0.978688 9.84558 1.19948 9.84558H3.03357ZM20.8916 9.84558C21.1124 9.84558 21.2915 10.0247 21.2915 10.2455C21.2915 10.4663 21.1124 10.6454 20.8916 10.6454H19.0575C18.8367 10.6454 18.6576 10.4663 18.6576 10.2455C18.6576 10.0247 18.8367 9.84558 19.0575 9.84558H20.8916ZM9.26305 22.7193C9.1907 22.5117 9.30044 22.284 9.50803 22.2115C9.71562 22.1391 9.94329 22.2489 10.0158 22.4565C10.0936 22.6795 10.2381 22.8659 10.4215 22.9963C10.6033 23.1254 10.8268 23.1998 11.064 23.1998C11.3012 23.1998 11.5247 23.1254 11.7065 22.9963C11.8901 22.8659 12.035 22.6791 12.1125 22.4565C12.1849 22.2489 12.4128 22.139 12.6203 22.2115C12.8279 22.2839 12.9379 22.5117 12.8653 22.7193C12.7318 23.1019 12.4838 23.4223 12.1689 23.646C11.8523 23.8709 11.4682 24 11.064 24C10.66 24 10.2757 23.8709 9.95909 23.646C9.64417 23.4224 9.39661 23.1021 9.26304 22.7193H9.26305ZM9.13638 22.0274C8.91559 22.0274 8.73646 21.8482 8.73646 21.6274C8.73646 21.4066 8.91559 21.2275 9.13638 21.2275H12.939C13.1598 21.2275 13.3389 21.4066 13.3389 21.6274C13.3389 21.8482 13.1598 22.0274 12.939 22.0274H9.13638ZM9.13638 21.066C8.91559 21.066 8.73646 20.8869 8.73646 20.6661C8.73646 20.4453 8.91559 20.2662 9.13638 20.2662H12.939C13.1598 20.2662 13.3389 20.4453 13.3389 20.6661C13.3389 20.8869 13.1598 21.066 12.939 21.066H9.13638ZM12.9543 19.1929H9.136C9.12093 19.1929 9.10568 19.1992 9.09563 19.2089C9.08615 19.2189 9.07982 19.2331 9.07982 19.2489C9.07982 19.2647 9.08615 19.2794 9.09582 19.2894C9.10586 19.2991 9.12075 19.3054 9.13581 19.3054H12.9541C12.9691 19.3054 12.9833 19.2987 12.9935 19.2887C13.0036 19.2787 13.0102 19.2645 13.0102 19.2493C13.0102 19.2335 13.0036 19.2193 12.9935 19.2093C12.9835 19.1992 12.9693 19.1925 12.9541 19.1925L12.9543 19.1929Z" fill="white"/>
</svg>
