<svg width="24" height="24" viewBox="0 0 24 24" fill="none" xmlns="http://www.w3.org/2000/svg">
<path d="M9.02962 21.69L11.3596 19.73C11.7096 19.43 12.2896 19.43 12.6396 19.73L14.9696 21.69C15.5096 21.96 16.1696 21.69 16.3696 21.11L16.8096 19.78C16.9196 19.46 16.8096 18.99 16.5696 18.75L14.2996 16.47C14.1296 16.31 13.9996 15.99 13.9996 15.76V12.91C13.9996 12.49 14.3096 12.29 14.6996 12.45L19.6096 14.57C20.3796 14.9 21.0096 14.49 21.0096 13.65V12.36C21.0096 11.69 20.5096 10.92 19.8896 10.66L14.2996 8.24999C14.1396 8.17999 13.9996 7.96999 13.9996 7.78999V4.78999C13.9996 3.84999 13.3096 2.73999 12.4696 2.30999C12.1696 2.15999 11.8196 2.15999 11.5196 2.30999C10.6796 2.73999 9.98962 3.85999 9.98962 4.79999V7.79999C9.98962 7.97999 9.84962 8.18999 9.68962 8.25999L4.10962 10.67C3.48962 10.92 2.98962 11.69 2.98962 12.36V13.65C2.98962 14.49 3.61962 14.9 4.38962 14.57L9.29962 12.45C9.67962 12.28 9.99962 12.49 9.99962 12.91V15.76C9.99962 15.99 9.86962 16.31 9.70962 16.47L7.43962 18.75C7.19962 18.99 7.08962 19.45 7.19962 19.78L7.63962 21.11C7.81962 21.69 8.47962 21.97 9.02962 21.69Z" stroke="white" stroke-width="1.5" stroke-linecap="round" stroke-linejoin="round"/>
</svg>
