<svg width="24" height="24" viewBox="0 0 24 24" fill="none" xmlns="http://www.w3.org/2000/svg">
<path d="M12.001 22.0805C11.701 22.0805 11.401 22.0105 11.151 21.8705C9.28098 20.8505 5.99098 19.7705 3.93098 19.5005L3.64098 19.4605C2.33098 19.3005 1.25098 18.0705 1.25098 16.7405V4.6605C1.25098 3.8705 1.56098 3.1505 2.13098 2.6305C2.70098 2.1105 3.44098 1.8605 4.22098 1.9305C6.42098 2.1005 9.74098 3.2005 11.621 4.3805L11.861 4.5205C11.931 4.5605 12.081 4.5605 12.141 4.5305L12.301 4.4305C14.181 3.2505 17.501 2.1305 19.711 1.9405C19.731 1.9405 19.811 1.9405 19.831 1.9405C20.561 1.8705 21.311 2.1305 21.871 2.6505C22.441 3.1705 22.751 3.8905 22.751 4.6805V16.7505C22.751 18.0905 21.671 19.3105 20.351 19.4705L20.021 19.5105C17.961 19.7805 14.661 20.8705 12.831 21.8805C12.591 22.0205 12.301 22.0805 12.001 22.0805ZM3.98098 3.4205C3.66098 3.4205 3.37098 3.5305 3.14098 3.7405C2.89098 3.9705 2.75098 4.3005 2.75098 4.6605V16.7405C2.75098 17.3305 3.26098 17.9005 3.83098 17.9805L4.13098 18.0205C6.38098 18.3205 9.83098 19.4505 11.831 20.5405C11.921 20.5805 12.051 20.5905 12.101 20.5705C14.101 19.4605 17.571 18.3205 19.831 18.0205L20.171 17.9805C20.741 17.9105 21.251 17.3305 21.251 16.7405V4.6705C21.251 4.3005 21.111 3.9805 20.861 3.7405C20.601 3.5105 20.271 3.4005 19.901 3.4205C19.881 3.4205 19.801 3.4205 19.781 3.4205C17.871 3.5905 14.791 4.6205 13.111 5.6705L12.951 5.7805C12.401 6.1205 11.621 6.1205 11.091 5.7905L10.851 5.6505C9.14098 4.6005 6.06098 3.5805 4.10098 3.4205C4.06098 3.4205 4.02098 3.4205 3.98098 3.4205Z" fill="white"/>
<path d="M12 21.24C11.59 21.24 11.25 20.9 11.25 20.49V5.49001C11.25 5.08001 11.59 4.74001 12 4.74001C12.41 4.74001 12.75 5.08001 12.75 5.49001V20.49C12.75 20.91 12.41 21.24 12 21.24Z" fill="white"/>
<path d="M7.74902 9.24023H5.49902C5.08902 9.24023 4.74902 8.90023 4.74902 8.49023C4.74902 8.08023 5.08902 7.74023 5.49902 7.74023H7.74902C8.15902 7.74023 8.49902 8.08023 8.49902 8.49023C8.49902 8.90023 8.15902 9.24023 7.74902 9.24023Z" fill="white"/>
<path d="M8.49902 12.2402H5.49902C5.08902 12.2402 4.74902 11.9002 4.74902 11.4902C4.74902 11.0802 5.08902 10.7402 5.49902 10.7402H8.49902C8.90902 10.7402 9.24902 11.0802 9.24902 11.4902C9.24902 11.9002 8.90902 12.2402 8.49902 12.2402Z" fill="white"/>
</svg>
