<svg width="25" height="24" viewBox="0 0 25 24" fill="none" xmlns="http://www.w3.org/2000/svg">
<path d="M9.66 10.87C9.56 10.86 9.44 10.86 9.33 10.87C6.95 10.79 5.06 8.84005 5.06 6.44005C5.06 3.99005 7.04 2.00005 9.5 2.00005C11.95 2.00005 13.94 3.99005 13.94 6.44005C13.93 8.84005 12.04 10.79 9.66 10.87Z" stroke="white" stroke-linecap="round" stroke-linejoin="round"/>
<path d="M16.91 4.00005C18.85 4.00005 20.41 5.57005 20.41 7.50005C20.41 9.39005 18.91 10.93 17.04 11C16.96 10.99 16.87 10.99 16.78 11" stroke="white" stroke-linecap="round" stroke-linejoin="round"/>
<path d="M4.65997 14.56C2.23997 16.18 2.23997 18.82 4.65997 20.43C7.40997 22.27 11.92 22.27 14.67 20.43C17.09 18.81 17.09 16.17 14.67 14.56C11.93 12.73 7.41997 12.73 4.65997 14.56Z" stroke="white" stroke-linecap="round" stroke-linejoin="round"/>
<path d="M18.84 20C19.56 19.85 20.24 19.56 20.8 19.13C22.36 17.96 22.36 16.03 20.8 14.86C20.25 14.44 19.58 14.16 18.87 14" stroke="white" stroke-linecap="round" stroke-linejoin="round"/>
</svg>
