<svg width="25" height="24" viewBox="0 0 25 24" fill="none" xmlns="http://www.w3.org/2000/svg">
<path d="M9.58647 21.9109C9.53951 21.9109 9.49201 21.9025 9.44718 21.8859C9.34611 21.8482 6.94529 20.9339 4.56975 18.0777C2.3961 15.4648 -0.159558 10.6544 0.00780772 2.57727C0.0104864 2.45583 0.067988 2.34208 0.164421 2.26833C0.260854 2.19439 0.385677 2.16814 0.503363 2.19725L0.62569 2.22743C3.20544 2.86407 5.95662 2.36851 8.17521 0.868801L9.35903 0.0685897C9.49242 -0.0214157 9.6669 -0.0230204 9.80136 0.0648396L11.1618 0.951637C13.3822 2.39864 16.1169 2.85314 18.6642 2.19845C18.7828 2.16773 18.909 2.19345 19.0064 2.26791C19.1037 2.34238 19.1617 2.45685 19.1637 2.57953C19.1676 2.82025 19.166 3.38994 19.1648 3.42294C19.1374 6.22021 18.728 8.85993 17.9483 11.2573C17.8799 11.4675 17.6538 11.5825 17.444 11.5139C17.2338 11.4455 17.119 11.22 17.1872 11.0096C17.9417 8.68989 18.338 6.1308 18.3651 3.40293C18.3655 3.38115 18.3662 3.24739 18.3664 3.08757C15.7456 3.62098 12.9884 3.09721 10.725 1.62146L9.58743 0.879625L8.62365 1.53126C6.32249 3.08683 3.49204 3.64599 0.800744 3.08738C0.707169 16.5288 8.35118 20.5198 9.56448 21.0674C9.95789 20.8446 11.0474 20.1756 12.319 18.9486C12.3385 18.897 12.3689 18.8486 12.4105 18.807C12.5667 18.6507 12.82 18.6507 12.976 18.807C12.9798 18.8091 12.9912 18.8197 13.0025 18.8306C13.0787 18.9057 13.1214 19.0084 13.1212 19.1154C13.121 19.2224 13.078 19.325 13.0017 19.4001C11.2569 21.1172 9.82376 21.8391 9.76378 21.8689C9.70806 21.8968 9.64699 21.9109 9.5861 21.9109L9.58647 21.9109Z" fill="white"/>
<path d="M16.0879 20.8932C14.7563 20.8932 13.4246 20.3864 12.4108 19.3726C10.3834 17.3452 10.3834 14.0458 12.4108 12.0188C14.4382 9.99105 17.7376 9.99105 19.7651 12.0188C21.7925 14.0462 21.7925 17.3456 19.7651 19.3726C18.7513 20.3864 17.4197 20.8932 16.088 20.8932H16.0879ZM16.0879 11.2975C14.9611 11.2975 13.8343 11.7264 12.9764 12.5842C11.261 14.2997 11.261 17.0913 12.9764 18.807C14.6922 20.5226 17.4834 20.5224 19.1993 18.807C20.9147 17.0914 20.9147 14.2999 19.1993 12.5842C18.3414 11.7264 17.2145 11.2975 16.0879 11.2975H16.0879Z" fill="white"/>
<path d="M22.8185 24C22.5295 24 22.2384 23.9399 21.967 23.8158C21.6043 23.6502 21.2904 23.4165 21.0338 23.1213L18.3369 20.0205C18.1917 19.8539 18.2096 19.601 18.3762 19.456C18.543 19.311 18.7957 19.3288 18.9405 19.4954L21.6374 22.5963C21.8161 22.8016 22.0453 22.9716 22.2995 23.0879C22.7574 23.2974 23.3047 23.2109 23.6623 22.8732C24.0062 22.5482 24.096 22.0537 23.8855 21.6428C23.7641 21.4057 23.5851 21.1912 23.3684 21.023L19.9963 18.4063C19.8218 18.2709 19.7902 18.0195 19.9256 17.845C20.0613 17.6704 20.3123 17.6388 20.487 17.7743L23.8591 20.391C24.1677 20.6307 24.4229 20.9373 24.5977 21.278C24.9716 22.0084 24.8166 22.8832 24.2114 23.4546C23.8337 23.8118 23.329 24 22.8185 24L22.8185 24Z" fill="white"/>
<path d="M15.2701 17.5164C15.1824 17.5164 15.0949 17.4878 15.0219 17.4299L13.7302 16.4078C13.557 16.2706 13.5275 16.0192 13.6648 15.8458C13.802 15.6724 14.0538 15.6436 14.2268 15.7804L15.2435 16.5849L17.9189 13.9888C18.0773 13.835 18.3305 13.8388 18.4844 13.9973C18.6382 14.1557 18.6344 14.4091 18.4759 14.5629L15.5485 17.4035C15.4711 17.4785 15.3708 17.5164 15.2701 17.5164L15.2701 17.5164Z" fill="white"/>
</svg>
