<svg width="25" height="24" viewBox="0 0 25 24" fill="none" xmlns="http://www.w3.org/2000/svg">
<path d="M20.36 8.09004C20.36 8.51004 20.33 8.92004 20.28 9.31004C19.82 9.11004 19.32 9.00005 18.79 9.00005C17.57 9.00005 16.49 9.59004 15.82 10.49C15.14 9.59004 14.06 9.00005 12.84 9.00005C10.79 9.00005 9.13 10.67 9.13 12.74C9.13 15.42 10.55 17.47 12.13 18.86C12.08 18.89 12.03 18.9001 11.98 18.9201C11.68 19.0301 11.18 19.0301 10.88 18.9201C8.29 18.0301 2.5 14.35 2.5 8.09004C2.5 5.33004 4.71999 3.10005 7.45999 3.10005C9.08999 3.10005 10.53 3.88004 11.43 5.09004C12.34 3.88004 13.78 3.10005 15.4 3.10005C18.14 3.10005 20.36 5.33004 20.36 8.09004Z" stroke="white" stroke-width="1.5" stroke-linecap="round" stroke-linejoin="round"/>
<path d="M22.5 12.74C22.5 17.42 18.17 20.18 16.23 20.84C16 20.92 15.63 20.92 15.4 20.84C14.57 20.56 13.3 19.89 12.13 18.86C10.55 17.47 9.13 15.42 9.13 12.74C9.13 10.67 10.79 9.00005 12.84 9.00005C14.06 9.00005 15.14 9.59004 15.82 10.49C16.49 9.59004 17.57 9.00005 18.79 9.00005C19.32 9.00005 19.82 9.11004 20.28 9.31004C21.59 9.89004 22.5 11.2 22.5 12.74Z" stroke="white" stroke-width="1.5" stroke-linecap="round" stroke-linejoin="round"/>
</svg>
